<?xml version="1.0" encoding="UTF-8"?>
<mxfile host="app.diagrams.net" modified="2024-03-19T10:00:00.000Z" agent="Mozilla/5.0" version="21.7.5" type="device">
<diagram id="youtube-project-flow" name="유튜브 프로젝트 아이디어 생성기">
<mxGraphModel dx="1422" dy="1963" grid="1" gridSize="10" guides="1" tooltips="1" connect="1" arrows="1" fold="1" page="1" pageScale="1" pageWidth="827" pageHeight="1169" math="0" shadow="0">
<root>
<mxCell id="0"/>
<mxCell id="1" parent="0"/>

<!-- 시작 노드 -->
<mxCell id="start" value="시작" style="ellipse;whiteSpace=wrap;html=1;fillColor=#E8F5E9;strokeColor=#4CAF50;fontStyle=1" vertex="1" parent="1">
<mxGeometry x="364" y="20" width="100" height="40" as="geometry"/>
</mxCell>

<!-- Google 트렌드 -->
<mxCell id="trends" value="Google 트렌드 데이터 로드" style="rounded=1;whiteSpace=wrap;html=1;fillColor=#E1F3FE;strokeColor=#04A7FB;" vertex="1" parent="1">
<mxGeometry x="314" y="90" width="200" height="40" as="geometry"/>
</mxCell>

<!-- 검색 단계 -->
<mxCell id="search" value="영상 검색 단계" style="rounded=1;whiteSpace=wrap;html=1;fillColor=#E1F3FE;strokeColor=#04A7FB;" vertex="1" parent="1">
<mxGeometry x="314" y="160" width="200" height="40" as="geometry"/>
</mxCell>

<!-- 검색어 입력 -->
<mxCell id="input" value="검색어 입력" style="rounded=1;whiteSpace=wrap;html=1;fillColor=#E1F3FE;strokeColor=#04A7FB;" vertex="1" parent="1">
<mxGeometry x="314" y="230" width="200" height="40" as="geometry"/>
</mxCell>

<!-- 필터 설정 -->
<mxCell id="filter" value="필터 설정&#xa;- 영상 길이&#xa;- 정렬 기준" style="rounded=1;whiteSpace=wrap;html=1;fillColor=#E1F3FE;strokeColor=#04A7FB;" vertex="1" parent="1">
<mxGeometry x="314" y="300" width="200" height="60" as="geometry"/>
</mxCell>

<!-- 검색 결과 -->
<mxCell id="results" value="검색 결과 표시" style="rounded=1;whiteSpace=wrap;html=1;fillColor=#E1F3FE;strokeColor=#04A7FB;" vertex="1" parent="1">
<mxGeometry x="314" y="390" width="200" height="40" as="geometry"/>
</mxCell>

<!-- 영상 선택 -->
<mxCell id="select" value="영상 선택" style="rounded=1;whiteSpace=wrap;html=1;fillColor=#E1F3FE;strokeColor=#04A7FB;" vertex="1" parent="1">
<mxGeometry x="314" y="460" width="200" height="40" as="geometry"/>
</mxCell>

<!-- 선택 확인 -->
<mxCell id="check" value="선택된 영상이&#xa;있는가?" style="rhombus;whiteSpace=wrap;html=1;fillColor=#FFF4E5;strokeColor=#FFA726;" vertex="1" parent="1">
<mxGeometry x="339" y="530" width="150" height="100" as="geometry"/>
</mxCell>

<!-- 영상 처리 -->
<mxCell id="process" value="선택된 영상 처리&#xa;- 오디오 다운로드&#xa;- 텍스트 추출" style="rounded=1;whiteSpace=wrap;html=1;fillColor=#E1F3FE;strokeColor=#04A7FB;" vertex="1" parent="1">
<mxGeometry x="314" y="660" width="200" height="60" as="geometry"/>
</mxCell>

<!-- AI 분석 -->
<mxCell id="ai" value="AI 분석&#xa;- 분석가 AI&#xa;- 실무자 AI" style="rounded=1;whiteSpace=wrap;html=1;fillColor=#E1F3FE;strokeColor=#04A7FB;" vertex="1" parent="1">
<mxGeometry x="314" y="750" width="200" height="60" as="geometry"/>
</mxCell>

<!-- 아이디어 생성 -->
<mxCell id="idea" value="최종 아이디어 생성&#xa;1. 프로젝트 개요&#xa;2. 세부 구현 방안&#xa;3. 차별화 포인트&#xa;4. 수익화 전략&#xa;5. 개발 로드맵" style="rounded=1;whiteSpace=wrap;html=1;fillColor=#E1F3FE;strokeColor=#04A7FB;" vertex="1" parent="1">
<mxGeometry x="314" y="840" width="200" height="100" as="geometry"/>
</mxCell>

<!-- 새 프로젝트 -->
<mxCell id="new" value="새 프로젝트&#xa;시작?" style="rhombus;whiteSpace=wrap;html=1;fillColor=#FFF4E5;strokeColor=#FFA726;" vertex="1" parent="1">
<mxGeometry x="339" y="970" width="150" height="100" as="geometry"/>
</mxCell>

<!-- 연결선 -->
<mxCell id="edge1" value="" style="endArrow=classic;html=1;exitX=0.5;exitY=1;entryX=0.5;entryY=0;" edge="1" parent="1" source="start" target="trends">
<mxGeometry relative="1" as="geometry"/>
</mxCell>

<mxCell id="edge2" value="" style="endArrow=classic;html=1;exitX=0.5;exitY=1;entryX=0.5;entryY=0;" edge="1" parent="1" source="trends" target="search">
<mxGeometry relative="1" as="geometry"/>
</mxCell>

<mxCell id="edge3" value="" style="endArrow=classic;html=1;exitX=0.5;exitY=1;entryX=0.5;entryY=0;" edge="1" parent="1" source="search" target="input">
<mxGeometry relative="1" as="geometry"/>
</mxCell>

<mxCell id="edge4" value="" style="endArrow=classic;html=1;exitX=0.5;exitY=1;entryX=0.5;entryY=0;" edge="1" parent="1" source="input" target="filter">
<mxGeometry relative="1" as="geometry"/>
</mxCell>

<mxCell id="edge5" value="" style="endArrow=classic;html=1;exitX=0.5;exitY=1;entryX=0.5;entryY=0;" edge="1" parent="1" source="filter" target="results">
<mxGeometry relative="1" as="geometry"/>
</mxCell>

<mxCell id="edge6" value="" style="endArrow=classic;html=1;exitX=0.5;exitY=1;entryX=0.5;entryY=0;" edge="1" parent="1" source="results" target="select">
<mxGeometry relative="1" as="geometry"/>
</mxCell>

<mxCell id="edge7" value="" style="endArrow=classic;html=1;exitX=0.5;exitY=1;entryX=0.5;entryY=0;" edge="1" parent="1" source="select" target="check">
<mxGeometry relative="1" as="geometry"/>
</mxCell>

<!-- No 경로 -->
<mxCell id="edge8" value="No" style="endArrow=classic;html=1;exitX=0;exitY=0.5;edgeStyle=orthogonalEdgeStyle;" edge="1" parent="1" source="check">
<mxGeometry relative="1" as="geometry">
<mxPoint x="264" y="580" as="sourcePoint"/>
<mxPoint x="314" y="180" as="targetPoint"/>
<Array as="points">
<mxPoint x="264" y="580"/>
<mxPoint x="264" y="180"/>
</Array>
</mxGeometry>
</mxCell>

<!-- Yes 경로 -->
<mxCell id="edge9" value="Yes" style="endArrow=classic;html=1;exitX=0.5;exitY=1;entryX=0.5;entryY=0;" edge="1" parent="1" source="check" target="process">
<mxGeometry relative="1" as="geometry"/>
</mxCell>

<mxCell id="edge10" value="" style="endArrow=classic;html=1;exitX=0.5;exitY=1;entryX=0.5;entryY=0;" edge="1" parent="1" source="process" target="ai">
<mxGeometry relative="1" as="geometry"/>
</mxCell>

<mxCell id="edge11" value="" style="endArrow=classic;html=1;exitX=0.5;exitY=1;entryX=0.5;entryY=0;" edge="1" parent="1" source="ai" target="idea">
<mxGeometry relative="1" as="geometry"/>
</mxCell>

<mxCell id="edge12" value="" style="endArrow=classic;html=1;exitX=0.5;exitY=1;entryX=0.5;entryY=0;" edge="1" parent="1" source="idea" target="new">
<mxGeometry relative="1" as="geometry"/>
</mxCell>

<!-- 새 프로젝트 Yes 경로 -->
<mxCell id="edge13" value="Yes" style="endArrow=classic;html=1;exitX=1;exitY=0.5;edgeStyle=orthogonalEdgeStyle;" edge="1" parent="1" source="new">
<mxGeometry relative="1" as="geometry">
<mxPoint x="489" y="1020" as="sourcePoint"/>
<mxPoint x="414" y="40" as="targetPoint"/>
<Array as="points">
<mxPoint x="564" y="1020"/>
<mxPoint x="564" y="40"/>
</Array>
</mxGeometry>
</mxCell>

<!-- 새 프로젝트 No 경로 -->
<mxCell id="edge14" value="No" style="endArrow=classic;html=1;exitX=0.5;exitY=1;" edge="1" parent="1" source="new">
<mxGeometry relative="1" as="geometry">
<mxPoint x="414" y="1070" as="sourcePoint"/>
<mxPoint x="414" y="1120" as="targetPoint"/>
</Array>
</mxGeometry>
</mxCell>

</root>
</mxGraphModel>
</diagram>
</mxfile>